<mxfile host="app.diagrams.net" agent="Mozilla/5.0 (Windows NT 10.0; Win64; x64) AppleWebKit/537.36 (KHTML, like Gecko) Chrome/134.0.0.0 Safari/537.36" version="24.7.14">
  <diagram name="Halaman-1" id="Bt2rBnB_WxGxtQ8DAgtO">
    <mxGraphModel dx="5693" dy="3793" grid="0" gridSize="10" guides="1" tooltips="1" connect="1" arrows="1" fold="1" page="0" pageScale="1" pageWidth="827" pageHeight="1169" math="0" shadow="0">
      <root>
        <mxCell id="0" />
        <mxCell id="1" parent="0" />
        <mxCell id="AQtkDO6y4QHFDF7B3Ct2-6" value="" style="edgeStyle=none;curved=1;rounded=0;orthogonalLoop=1;jettySize=auto;html=1;fontSize=12;startSize=8;endSize=8;" edge="1" parent="1" source="AQtkDO6y4QHFDF7B3Ct2-1" target="AQtkDO6y4QHFDF7B3Ct2-5">
          <mxGeometry relative="1" as="geometry" />
        </mxCell>
        <mxCell id="AQtkDO6y4QHFDF7B3Ct2-1" value="mahasiswa" style="rounded=1;whiteSpace=wrap;html=1;" vertex="1" parent="1">
          <mxGeometry x="14" y="170" width="120" height="60" as="geometry" />
        </mxCell>
        <mxCell id="AQtkDO6y4QHFDF7B3Ct2-5" value="Sistem Perpustakaan" style="ellipse;whiteSpace=wrap;html=1;rounded=1;" vertex="1" parent="1">
          <mxGeometry x="281" y="160" width="80" height="80" as="geometry" />
        </mxCell>
        <mxCell id="AQtkDO6y4QHFDF7B3Ct2-7" value="" style="endArrow=classic;html=1;rounded=0;fontSize=12;startSize=8;endSize=8;curved=1;exitX=0.058;exitY=0.354;exitDx=0;exitDy=0;exitPerimeter=0;" edge="1" parent="1" source="AQtkDO6y4QHFDF7B3Ct2-5">
          <mxGeometry width="50" height="50" relative="1" as="geometry">
            <mxPoint x="175" y="225" as="sourcePoint" />
            <mxPoint x="134" y="188" as="targetPoint" />
          </mxGeometry>
        </mxCell>
        <mxCell id="AQtkDO6y4QHFDF7B3Ct2-9" value="" style="edgeStyle=none;curved=1;rounded=0;orthogonalLoop=1;jettySize=auto;html=1;fontSize=12;startSize=8;endSize=8;" edge="1" parent="1" source="AQtkDO6y4QHFDF7B3Ct2-8" target="AQtkDO6y4QHFDF7B3Ct2-5">
          <mxGeometry relative="1" as="geometry" />
        </mxCell>
        <mxCell id="AQtkDO6y4QHFDF7B3Ct2-8" value="Admin" style="rounded=1;whiteSpace=wrap;html=1;" vertex="1" parent="1">
          <mxGeometry x="265" y="336" width="120" height="60" as="geometry" />
        </mxCell>
        <mxCell id="AQtkDO6y4QHFDF7B3Ct2-10" value="manajemen" style="text;html=1;align=center;verticalAlign=middle;resizable=0;points=[];autosize=1;strokeColor=none;fillColor=none;fontSize=16;" vertex="1" parent="1">
          <mxGeometry x="327" y="273" width="102" height="31" as="geometry" />
        </mxCell>
        <mxCell id="AQtkDO6y4QHFDF7B3Ct2-12" value="" style="edgeStyle=none;curved=1;rounded=0;orthogonalLoop=1;jettySize=auto;html=1;fontSize=12;startSize=8;endSize=8;" edge="1" parent="1" source="AQtkDO6y4QHFDF7B3Ct2-11" target="AQtkDO6y4QHFDF7B3Ct2-8">
          <mxGeometry relative="1" as="geometry" />
        </mxCell>
        <mxCell id="AQtkDO6y4QHFDF7B3Ct2-11" value="Pustakawan" style="rounded=1;whiteSpace=wrap;html=1;" vertex="1" parent="1">
          <mxGeometry x="4" y="336" width="120" height="60" as="geometry" />
        </mxCell>
        <mxCell id="AQtkDO6y4QHFDF7B3Ct2-13" value="" style="endArrow=classic;html=1;rounded=0;fontSize=12;startSize=8;endSize=8;curved=1;exitX=0.058;exitY=0.354;exitDx=0;exitDy=0;exitPerimeter=0;entryX=1;entryY=0.25;entryDx=0;entryDy=0;" edge="1" parent="1" target="AQtkDO6y4QHFDF7B3Ct2-11">
          <mxGeometry width="50" height="50" relative="1" as="geometry">
            <mxPoint x="265" y="351" as="sourcePoint" />
            <mxPoint x="113" y="351" as="targetPoint" />
          </mxGeometry>
        </mxCell>
        <mxCell id="AQtkDO6y4QHFDF7B3Ct2-14" value="Interaksi sistem" style="text;html=1;align=center;verticalAlign=middle;resizable=0;points=[];autosize=1;strokeColor=none;fillColor=none;fontSize=16;" vertex="1" parent="1">
          <mxGeometry x="144" y="154" width="129" height="31" as="geometry" />
        </mxCell>
        <mxCell id="AQtkDO6y4QHFDF7B3Ct2-16" value="&lt;div&gt;&lt;br&gt;&lt;/div&gt;" style="text;html=1;align=center;verticalAlign=middle;resizable=0;points=[];autosize=1;strokeColor=none;fillColor=none;fontSize=16;" vertex="1" parent="1">
          <mxGeometry x="12" y="12" width="18" height="31" as="geometry" />
        </mxCell>
        <mxCell id="AQtkDO6y4QHFDF7B3Ct2-17" value="&lt;h1 style=&quot;margin-top: 0px;&quot;&gt;DIAGRAM KONTEKS&lt;div&gt;&lt;br style=&quot;font-size: 16px; font-weight: 400; text-align: center; text-wrap-mode: nowrap;&quot;&gt;&lt;/div&gt;&lt;/h1&gt;&lt;li style=&quot;font-size: 16px; text-wrap-mode: nowrap;&quot; class=&quot;whitespace-normal break-words&quot;&gt;&lt;strong&gt;Mahasiswa&lt;/strong&gt;:&lt;ul depth=&quot;1&quot; class=&quot;[&amp;amp;:not(:last-child)_ul]:pb-1 [&amp;amp;:not(:last-child)_ol]:pb-1 list-disc space-y-1.5 pl-7&quot;&gt;&lt;li class=&quot;whitespace-normal break-words&quot;&gt;Login ke sistem&lt;/li&gt;&lt;br&gt;&lt;li class=&quot;whitespace-normal break-words&quot;&gt;Pencarian buku&lt;/li&gt;&lt;br&gt;&lt;li class=&quot;whitespace-normal break-words&quot;&gt;Peminjaman buku&lt;/li&gt;&lt;br&gt;&lt;li class=&quot;whitespace-normal break-words&quot;&gt;Pengembalian buku&lt;/li&gt;&lt;/ul&gt;&lt;/li&gt;&lt;li style=&quot;font-size: 16px; text-wrap-mode: nowrap;&quot; class=&quot;whitespace-normal break-words&quot;&gt;&lt;strong&gt;Pustakawan&lt;/strong&gt;:&lt;ul depth=&quot;1&quot; class=&quot;[&amp;amp;:not(:last-child)_ul]:pb-1 [&amp;amp;:not(:last-child)_ol]:pb-1 list-disc space-y-1.5 pl-7&quot;&gt;&lt;li class=&quot;whitespace-normal break-words&quot;&gt;Mengelola data buku&lt;/li&gt;&lt;br&gt;&lt;li class=&quot;whitespace-normal break-words&quot;&gt;Validasi peminjaman&lt;/li&gt;&lt;br&gt;&lt;li class=&quot;whitespace-normal break-words&quot;&gt;Validasi pengembalian&lt;/li&gt;&lt;br&gt;&lt;li class=&quot;whitespace-normal break-words&quot;&gt;Kelola anggota&lt;/li&gt;&lt;/ul&gt;&lt;/li&gt;&lt;li style=&quot;font-size: 16px; text-wrap-mode: nowrap;&quot; class=&quot;whitespace-normal break-words&quot;&gt;&lt;strong&gt;Admin&lt;/strong&gt;:&lt;ul depth=&quot;1&quot; class=&quot;[&amp;amp;:not(:last-child)_ul]:pb-1 [&amp;amp;:not(:last-child)_ol]:pb-1 list-disc space-y-1.5 pl-7&quot;&gt;&lt;li class=&quot;whitespace-normal break-words&quot;&gt;Manajemen sistem&lt;/li&gt;&lt;br&gt;&lt;li class=&quot;whitespace-normal break-words&quot;&gt;Pengaturan aplikasi&lt;/li&gt;&lt;br&gt;&lt;li class=&quot;whitespace-normal break-words&quot;&gt;Manajemen pengguna&lt;/li&gt;&lt;br&gt;&lt;li class=&quot;whitespace-normal break-words&quot;&gt;Kontrol hak akses&lt;/li&gt;&lt;/ul&gt;&lt;/li&gt;" style="text;html=1;whiteSpace=wrap;overflow=hidden;rounded=0;" vertex="1" parent="1">
          <mxGeometry x="-254" y="-33" width="233" height="671" as="geometry" />
        </mxCell>
        <mxCell id="AQtkDO6y4QHFDF7B3Ct2-33" value="" style="edgeStyle=none;curved=1;rounded=0;orthogonalLoop=1;jettySize=auto;html=1;fontSize=12;startSize=8;endSize=8;" edge="1" parent="1" source="AQtkDO6y4QHFDF7B3Ct2-18" target="AQtkDO6y4QHFDF7B3Ct2-32">
          <mxGeometry relative="1" as="geometry" />
        </mxCell>
        <mxCell id="AQtkDO6y4QHFDF7B3Ct2-34" value="Data Anggota" style="edgeLabel;html=1;align=center;verticalAlign=middle;resizable=0;points=[];fontSize=12;" vertex="1" connectable="0" parent="AQtkDO6y4QHFDF7B3Ct2-33">
          <mxGeometry x="-0.2963" relative="1" as="geometry">
            <mxPoint as="offset" />
          </mxGeometry>
        </mxCell>
        <mxCell id="AQtkDO6y4QHFDF7B3Ct2-18" value="Manajemen Anggota" style="ellipse;whiteSpace=wrap;html=1;" vertex="1" parent="1">
          <mxGeometry x="924" y="227" width="120" height="80" as="geometry" />
        </mxCell>
        <mxCell id="AQtkDO6y4QHFDF7B3Ct2-19" value="" style="endArrow=classic;html=1;rounded=0;fontSize=12;startSize=8;endSize=8;curved=1;entryX=0.016;entryY=0.393;entryDx=0;entryDy=0;entryPerimeter=0;" edge="1" parent="1" target="AQtkDO6y4QHFDF7B3Ct2-20">
          <mxGeometry width="50" height="50" relative="1" as="geometry">
            <mxPoint x="1027" y="239" as="sourcePoint" />
            <mxPoint x="1077" y="189" as="targetPoint" />
          </mxGeometry>
        </mxCell>
        <mxCell id="AQtkDO6y4QHFDF7B3Ct2-21" value="Validasi Anggota" style="edgeLabel;html=1;align=center;verticalAlign=middle;resizable=0;points=[];fontSize=12;" vertex="1" connectable="0" parent="AQtkDO6y4QHFDF7B3Ct2-19">
          <mxGeometry x="-0.2059" y="6" relative="1" as="geometry">
            <mxPoint x="1" as="offset" />
          </mxGeometry>
        </mxCell>
        <mxCell id="AQtkDO6y4QHFDF7B3Ct2-22" value="" style="edgeStyle=none;curved=1;rounded=0;orthogonalLoop=1;jettySize=auto;html=1;fontSize=12;startSize=8;endSize=8;" edge="1" parent="1" source="AQtkDO6y4QHFDF7B3Ct2-20" target="AQtkDO6y4QHFDF7B3Ct2-18">
          <mxGeometry relative="1" as="geometry">
            <Array as="points">
              <mxPoint x="1080" y="245" />
            </Array>
          </mxGeometry>
        </mxCell>
        <mxCell id="AQtkDO6y4QHFDF7B3Ct2-23" value="Konfirmasi" style="edgeLabel;html=1;align=center;verticalAlign=middle;resizable=0;points=[];fontSize=12;" vertex="1" connectable="0" parent="AQtkDO6y4QHFDF7B3Ct2-22">
          <mxGeometry x="-0.3144" y="-6" relative="1" as="geometry">
            <mxPoint x="5" y="3" as="offset" />
          </mxGeometry>
        </mxCell>
        <mxCell id="AQtkDO6y4QHFDF7B3Ct2-20" value="Pustakawan" style="whiteSpace=wrap;html=1;" vertex="1" parent="1">
          <mxGeometry x="1100" y="142" width="120" height="60" as="geometry" />
        </mxCell>
        <mxCell id="AQtkDO6y4QHFDF7B3Ct2-30" style="edgeStyle=none;curved=1;rounded=0;orthogonalLoop=1;jettySize=auto;html=1;entryX=0;entryY=0.5;entryDx=0;entryDy=0;fontSize=12;startSize=8;endSize=8;" edge="1" parent="1" source="AQtkDO6y4QHFDF7B3Ct2-29" target="AQtkDO6y4QHFDF7B3Ct2-18">
          <mxGeometry relative="1" as="geometry" />
        </mxCell>
        <mxCell id="AQtkDO6y4QHFDF7B3Ct2-31" value="Pendaftaran" style="edgeLabel;html=1;align=center;verticalAlign=middle;resizable=0;points=[];fontSize=12;" vertex="1" connectable="0" parent="AQtkDO6y4QHFDF7B3Ct2-30">
          <mxGeometry x="-0.3317" relative="1" as="geometry">
            <mxPoint as="offset" />
          </mxGeometry>
        </mxCell>
        <mxCell id="AQtkDO6y4QHFDF7B3Ct2-29" value="mahasiswa" style="whiteSpace=wrap;html=1;" vertex="1" parent="1">
          <mxGeometry x="760" y="150" width="120" height="60" as="geometry" />
        </mxCell>
        <mxCell id="AQtkDO6y4QHFDF7B3Ct2-39" value="" style="edgeStyle=none;curved=1;rounded=0;orthogonalLoop=1;jettySize=auto;html=1;fontSize=12;startSize=8;endSize=8;" edge="1" parent="1" source="AQtkDO6y4QHFDF7B3Ct2-32" target="AQtkDO6y4QHFDF7B3Ct2-38">
          <mxGeometry relative="1" as="geometry" />
        </mxCell>
        <mxCell id="AQtkDO6y4QHFDF7B3Ct2-40" value="Proses&lt;div&gt;&amp;nbsp;Peminjaman&lt;/div&gt;" style="edgeLabel;html=1;align=center;verticalAlign=middle;resizable=0;points=[];fontSize=12;" vertex="1" connectable="0" parent="AQtkDO6y4QHFDF7B3Ct2-39">
          <mxGeometry x="-0.287" y="-1" relative="1" as="geometry">
            <mxPoint x="10" y="-1" as="offset" />
          </mxGeometry>
        </mxCell>
        <mxCell id="AQtkDO6y4QHFDF7B3Ct2-32" value="Manajemen Buku" style="ellipse;whiteSpace=wrap;html=1;" vertex="1" parent="1">
          <mxGeometry x="924" y="427" width="120" height="80" as="geometry" />
        </mxCell>
        <mxCell id="AQtkDO6y4QHFDF7B3Ct2-36" style="edgeStyle=none;curved=1;rounded=0;orthogonalLoop=1;jettySize=auto;html=1;entryX=0;entryY=0.5;entryDx=0;entryDy=0;fontSize=12;startSize=8;endSize=8;" edge="1" parent="1" source="AQtkDO6y4QHFDF7B3Ct2-35" target="AQtkDO6y4QHFDF7B3Ct2-32">
          <mxGeometry relative="1" as="geometry" />
        </mxCell>
        <mxCell id="AQtkDO6y4QHFDF7B3Ct2-37" value="Simpan Data" style="edgeLabel;html=1;align=center;verticalAlign=middle;resizable=0;points=[];fontSize=12;" vertex="1" connectable="0" parent="AQtkDO6y4QHFDF7B3Ct2-36">
          <mxGeometry x="-0.3258" y="-1" relative="1" as="geometry">
            <mxPoint as="offset" />
          </mxGeometry>
        </mxCell>
        <mxCell id="AQtkDO6y4QHFDF7B3Ct2-35" value="Data Anggota" style="whiteSpace=wrap;html=1;" vertex="1" parent="1">
          <mxGeometry x="657" y="386" width="120" height="60" as="geometry" />
        </mxCell>
        <mxCell id="AQtkDO6y4QHFDF7B3Ct2-42" style="edgeStyle=none;curved=1;rounded=0;orthogonalLoop=1;jettySize=auto;html=1;exitX=1;exitY=0;exitDx=0;exitDy=0;entryX=0;entryY=1;entryDx=0;entryDy=0;fontSize=12;startSize=8;endSize=8;" edge="1" parent="1" source="AQtkDO6y4QHFDF7B3Ct2-38" target="AQtkDO6y4QHFDF7B3Ct2-41">
          <mxGeometry relative="1" as="geometry" />
        </mxCell>
        <mxCell id="AQtkDO6y4QHFDF7B3Ct2-50" value="Update&amp;nbsp;&lt;div&gt;Buku&lt;/div&gt;" style="edgeLabel;html=1;align=center;verticalAlign=middle;resizable=0;points=[];fontSize=12;" vertex="1" connectable="0" parent="AQtkDO6y4QHFDF7B3Ct2-42">
          <mxGeometry x="-0.1923" y="2" relative="1" as="geometry">
            <mxPoint x="12" as="offset" />
          </mxGeometry>
        </mxCell>
        <mxCell id="AQtkDO6y4QHFDF7B3Ct2-44" style="edgeStyle=none;curved=1;rounded=0;orthogonalLoop=1;jettySize=auto;html=1;exitX=1;exitY=1;exitDx=0;exitDy=0;entryX=0.5;entryY=1;entryDx=0;entryDy=0;fontSize=12;startSize=8;endSize=8;" edge="1" parent="1" source="AQtkDO6y4QHFDF7B3Ct2-38" target="AQtkDO6y4QHFDF7B3Ct2-41">
          <mxGeometry relative="1" as="geometry" />
        </mxCell>
        <mxCell id="AQtkDO6y4QHFDF7B3Ct2-49" value="Catatan&amp;nbsp;&lt;div&gt;Peminjaman&lt;/div&gt;" style="edgeLabel;html=1;align=center;verticalAlign=middle;resizable=0;points=[];fontSize=12;" vertex="1" connectable="0" parent="AQtkDO6y4QHFDF7B3Ct2-44">
          <mxGeometry x="-0.297" y="6" relative="1" as="geometry">
            <mxPoint as="offset" />
          </mxGeometry>
        </mxCell>
        <mxCell id="AQtkDO6y4QHFDF7B3Ct2-38" value="&amp;nbsp;Peminjaman" style="ellipse;whiteSpace=wrap;html=1;" vertex="1" parent="1">
          <mxGeometry x="1164" y="427" width="120" height="80" as="geometry" />
        </mxCell>
        <mxCell id="AQtkDO6y4QHFDF7B3Ct2-46" style="edgeStyle=none;curved=1;rounded=0;orthogonalLoop=1;jettySize=auto;html=1;exitX=0.75;exitY=1;exitDx=0;exitDy=0;entryX=1;entryY=1;entryDx=0;entryDy=0;fontSize=12;startSize=8;endSize=8;" edge="1" parent="1" source="AQtkDO6y4QHFDF7B3Ct2-41" target="AQtkDO6y4QHFDF7B3Ct2-32">
          <mxGeometry relative="1" as="geometry">
            <Array as="points">
              <mxPoint x="1300" y="610" />
            </Array>
          </mxGeometry>
        </mxCell>
        <mxCell id="AQtkDO6y4QHFDF7B3Ct2-48" value="Data Buku" style="edgeLabel;html=1;align=center;verticalAlign=middle;resizable=0;points=[];fontSize=12;" vertex="1" connectable="0" parent="AQtkDO6y4QHFDF7B3Ct2-46">
          <mxGeometry x="0.2743" y="-34" relative="1" as="geometry">
            <mxPoint y="-1" as="offset" />
          </mxGeometry>
        </mxCell>
        <mxCell id="AQtkDO6y4QHFDF7B3Ct2-41" value="Data Buku" style="whiteSpace=wrap;html=1;" vertex="1" parent="1">
          <mxGeometry x="1367" y="341" width="120" height="60" as="geometry" />
        </mxCell>
        <mxCell id="AQtkDO6y4QHFDF7B3Ct2-43" style="edgeStyle=none;curved=1;rounded=0;orthogonalLoop=1;jettySize=auto;html=1;exitX=0;exitY=0.5;exitDx=0;exitDy=0;entryX=0.71;entryY=0.065;entryDx=0;entryDy=0;entryPerimeter=0;fontSize=12;startSize=8;endSize=8;" edge="1" parent="1" source="AQtkDO6y4QHFDF7B3Ct2-41" target="AQtkDO6y4QHFDF7B3Ct2-38">
          <mxGeometry relative="1" as="geometry" />
        </mxCell>
        <mxCell id="AQtkDO6y4QHFDF7B3Ct2-52" value="Status Buku" style="edgeLabel;html=1;align=center;verticalAlign=middle;resizable=0;points=[];fontSize=12;" vertex="1" connectable="0" parent="AQtkDO6y4QHFDF7B3Ct2-43">
          <mxGeometry x="-0.4588" y="-1" relative="1" as="geometry">
            <mxPoint x="1" as="offset" />
          </mxGeometry>
        </mxCell>
        <mxCell id="AQtkDO6y4QHFDF7B3Ct2-45" style="edgeStyle=none;curved=1;rounded=0;orthogonalLoop=1;jettySize=auto;html=1;exitX=0;exitY=0;exitDx=0;exitDy=0;entryX=0.875;entryY=0.188;entryDx=0;entryDy=0;entryPerimeter=0;fontSize=12;startSize=8;endSize=8;" edge="1" parent="1" source="AQtkDO6y4QHFDF7B3Ct2-38" target="AQtkDO6y4QHFDF7B3Ct2-32">
          <mxGeometry relative="1" as="geometry" />
        </mxCell>
        <mxCell id="AQtkDO6y4QHFDF7B3Ct2-47" value="Informasi Buku" style="edgeLabel;html=1;align=center;verticalAlign=middle;resizable=0;points=[];fontSize=12;" vertex="1" connectable="0" parent="AQtkDO6y4QHFDF7B3Ct2-45">
          <mxGeometry x="0.275" y="-4" relative="1" as="geometry">
            <mxPoint x="12" y="2" as="offset" />
          </mxGeometry>
        </mxCell>
      </root>
    </mxGraphModel>
  </diagram>
</mxfile>
